<svg id="Ebene_1" data-name="Ebene 1" xmlns="http://www.w3.org/2000/svg" viewBox="0 0 344 53"><path d="M37,1,35.44,7.07H20.82L9.76,51.42h-6L14.77,7.07H.16L1.67,1Z"/><path d="M68.21,51.42H61.78L56.64,37.31H36.35L31.22,51.42H24.78L43.13,1h6.74ZM54.44,31.26,46.5,9.44,38.56,31.26Z"/><path d="M100.82,45.38v6H70.57V1h6.05V45.38Z"/><path d="M141.17,1l-32,32v18.4h-6V1h6V24.46L132.61,1Zm.74,50.4H134l-18.62-22.1,4.3-4.29Z"/><path d="M198.16,1V7.07H183.54V51.42h-6V7.07H162.88V1Z"/><path d="M248,26.22A26.21,26.21,0,1,1,221.77,0,26.2,26.2,0,0,1,248,26.22Zm-6,0a20.17,20.17,0,1,0-20.17,20.16A20.17,20.17,0,0,0,241.94,26.22Z"/><path d="M308.82,1V34.79a17.64,17.64,0,1,1-35.28,0V1h6V34.79a11.59,11.59,0,1,0,23.18,0V1Z"/><path d="M340.86,29.61a11.93,11.93,0,0,1,3,8.41A12.38,12.38,0,0,1,339,48.4q-4.83,3.72-13.1,3.72-9,0-13.79-2.31V44.16a36.87,36.87,0,0,0,6.76,2.07,35.9,35.9,0,0,0,7.24.75Q332,47,335,44.76a7.28,7.28,0,0,0,3-6.19,8,8,0,0,0-1.05-4.29,9.77,9.77,0,0,0-3.51-3.08,49.43,49.43,0,0,0-7.5-3.21q-7-2.52-10.05-6a13.18,13.18,0,0,1-3-9,11.18,11.18,0,0,1,4.37-9.27Q321.54.31,328.74.31a34.16,34.16,0,0,1,13.83,2.76l-1.83,5.1a31.34,31.34,0,0,0-12.13-2.62,11.77,11.77,0,0,0-7.28,2,6.61,6.61,0,0,0-2.62,5.55,8.51,8.51,0,0,0,1,4.29,9,9,0,0,0,3.26,3.07,40.35,40.35,0,0,0,7,3.09q7.94,2.82,10.91,6.06Z"/></svg>